<svg aria-hidden="true" xmlns="http://www.w3.org/2000/svg" xmlns:xlink="http://www.w3.org/1999/xlink"><symbol viewBox="0 0 15 15" fill="none" id="arrow" xmlns="http://www.w3.org/2000/svg">
<g opacity="0.7" clip-path="url(#bclip0_331_1495)">
<path d="M14.8281 7.08524C14.828 7.08507 14.8278 7.08486 14.8276 7.08469L11.766 4.03781C11.5366 3.80956 11.1656 3.81041 10.9373 4.0398C10.709 4.26917 10.7099 4.64015 10.9393 4.86844L12.9949 6.91406H0.585938C0.262324 6.91406 0 7.17638 0 7.5C0 7.82361 0.262324 8.08594 0.585938 8.08594H12.9948L10.9393 10.1316C10.7099 10.3598 10.7091 10.7308 10.9373 10.9602C11.1657 11.1896 11.5367 11.1904 11.766 10.9622L14.8276 7.91531C14.8278 7.91513 14.828 7.91493 14.8282 7.91475C15.0577 7.68571 15.0569 7.31352 14.8281 7.08524Z" fill="currentColor"/>
</g>
<defs>
<clipPath id="bclip0_331_1495">
<rect width="15" height="15" fill="currentColor"/>
</clipPath>
</defs>
</symbol><symbol viewBox="0 0 20 20" fill="none" id="arrow-slider" xmlns="http://www.w3.org/2000/svg">
<path d="M15.5558 9.2196L6.65555 0.31951C6.4497 0.113495 6.1749 0 5.8819 0C5.58889 0 5.3141 0.113495 5.10824 0.31951L4.4528 0.974789C4.0263 1.40178 4.0263 2.09576 4.4528 2.52209L11.9266 9.99585L4.44451 17.4779C4.23866 17.6839 4.125 17.9586 4.125 18.2514C4.125 18.5446 4.23866 18.8192 4.44451 19.0254L5.09995 19.6805C5.30597 19.8865 5.5806 20 5.8736 20C6.16661 20 6.4414 19.8865 6.64726 19.6805L15.5558 10.7723C15.7621 10.5656 15.8755 10.2897 15.8748 9.99634C15.8755 9.70187 15.7621 9.4261 15.5558 9.2196Z" fill="currentColor"/>
</symbol><symbol viewBox="0 0 40 40" fill="none" id="clock" xmlns="http://www.w3.org/2000/svg">
<path d="M20 0C8.97156 0 0 8.97156 0 20C0 31.0284 8.97156 40 20 40C31.0284 40 40 31.0284 40 20C40 8.97156 31.0284 0 20 0ZM29.5117 30.3448C29.1867 30.6699 28.7601 30.8334 28.3334 30.8334C27.9068 30.8334 27.4799 30.6699 27.1552 30.3448L18.8217 22.0117C18.5083 21.7001 18.3334 21.2766 18.3334 20.8334V10C18.3334 9.07837 19.0799 8.33344 20 8.33344C20.9201 8.33344 21.6666 9.07837 21.6666 10V20.1434L29.5117 27.9883C30.1633 28.6401 30.1633 29.6933 29.5117 30.3448Z" fill="currentColor"/>
</symbol><symbol viewBox="0 0 20 20" fill="none" id="instagram" xmlns="http://www.w3.org/2000/svg">
<path d="M10.1968 20.0004C10.1306 20.0004 10.0644 20.0004 9.99771 20.0001C8.43002 20.0039 6.98151 19.9641 5.57281 19.8783C4.28131 19.7997 3.10242 19.3534 2.16339 18.5877C1.25732 17.8489 0.63858 16.8499 0.324402 15.6188C0.0509644 14.547 0.0364685 13.4949 0.022583 12.4773C0.0125122 11.7472 0.00213623 10.882 0 10.0022C0.00213623 9.11872 0.0125122 8.25354 0.022583 7.52341C0.0364685 6.50596 0.0509644 5.45386 0.324402 4.38193C0.63858 3.15085 1.25732 2.15186 2.16339 1.41303C3.10242 0.647344 4.28131 0.201024 5.57297 0.122441C6.98166 0.0368396 8.43048 -0.00313839 10.0015 0.000676313C11.5697 -0.00268062 13.0177 0.0368396 14.4264 0.122441C15.7179 0.201024 16.8968 0.647344 17.8358 1.41303C18.7421 2.15186 19.3607 3.15085 19.6748 4.38193C19.9483 5.45371 19.9628 6.50596 19.9767 7.52341C19.9867 8.25354 19.9973 9.11872 19.9992 9.99854V10.0022C19.9973 10.882 19.9867 11.7472 19.9767 12.4773C19.9628 13.4948 19.9484 14.5469 19.6748 15.6188C19.3607 16.8499 18.7421 17.8489 17.8358 18.5877C16.8968 19.3534 15.7179 19.7997 14.4264 19.8783C13.0774 19.9604 11.6916 20.0004 10.1968 20.0004ZM9.99771 18.4376C11.5399 18.4412 12.9559 18.4023 14.3315 18.3187C15.3081 18.2593 16.1548 17.9424 16.8484 17.3768C17.4896 16.8539 17.9312 16.1324 18.1609 15.2325C18.3885 14.3403 18.4016 13.3823 18.4143 12.456C18.4242 11.7307 18.4346 10.8716 18.4367 10.0004C18.4346 9.12894 18.4242 8.27002 18.4143 7.54477C18.4016 6.61841 18.3885 5.66047 18.1609 4.76813C17.9312 3.86817 17.4896 3.14673 16.8484 2.62381C16.1548 2.05832 15.3081 1.7414 14.3315 1.68204C12.9559 1.59827 11.5399 1.55967 10.0014 1.56302C8.45947 1.55936 7.0433 1.59827 5.66772 1.68204C4.69116 1.7414 3.84445 2.05832 3.15079 2.62381C2.50961 3.14673 2.06802 3.86817 1.83838 4.76813C1.61072 5.66047 1.5976 6.61826 1.58493 7.54477C1.57501 8.27063 1.56464 9.13016 1.5625 10.0022C1.56464 10.8704 1.57501 11.7301 1.58493 12.456C1.5976 13.3823 1.61072 14.3403 1.83838 15.2325C2.06802 16.1324 2.50961 16.8539 3.15079 17.3768C3.84445 17.9423 4.69116 18.2592 5.66772 18.3185C7.0433 18.4023 8.45978 18.4414 9.99771 18.4376ZM9.96048 14.8832C7.26822 14.8832 5.07767 12.6928 5.07767 10.0004C5.07767 7.30796 7.26822 5.11756 9.96048 5.11756C12.6529 5.11756 14.8433 7.30796 14.8433 10.0004C14.8433 12.6928 12.6529 14.8832 9.96048 14.8832ZM9.96048 6.68006C8.12973 6.68006 6.64017 8.16962 6.64017 10.0004C6.64017 11.8311 8.12973 13.3207 9.96048 13.3207C11.7914 13.3207 13.2808 11.8311 13.2808 10.0004C13.2808 8.16962 11.7914 6.68006 9.96048 6.68006ZM15.3902 3.55506C14.743 3.55506 14.2183 4.07966 14.2183 4.72693C14.2183 5.37421 14.743 5.89881 15.3902 5.89881C16.0374 5.89881 16.562 5.37421 16.562 4.72693C16.562 4.07966 16.0374 3.55506 15.3902 3.55506Z" fill="currentColor"/>
<path d="M10.1968 20.0004C10.1306 20.0004 10.0644 20.0004 9.99771 20.0001C8.43002 20.0039 6.98151 19.9641 5.57281 19.8783C4.28131 19.7997 3.10242 19.3534 2.16339 18.5877C1.25732 17.8489 0.63858 16.8499 0.324402 15.6188C0.0509644 14.547 0.0364685 13.4949 0.022583 12.4773C0.0125122 11.7472 0.00213623 10.882 0 10.0022C0.00213623 9.11872 0.0125122 8.25354 0.022583 7.52341C0.0364685 6.50596 0.0509644 5.45386 0.324402 4.38193C0.63858 3.15085 1.25732 2.15186 2.16339 1.41303C3.10242 0.647344 4.28131 0.201024 5.57297 0.122441C6.98166 0.0368396 8.43048 -0.00313839 10.0015 0.000676313C11.5697 -0.00268062 13.0177 0.0368396 14.4264 0.122441C15.7179 0.201024 16.8968 0.647344 17.8358 1.41303C18.7421 2.15186 19.3607 3.15085 19.6748 4.38193C19.9483 5.45371 19.9628 6.50596 19.9767 7.52341C19.9867 8.25354 19.9973 9.11872 19.9992 9.99854V10.0022C19.9973 10.882 19.9867 11.7472 19.9767 12.4773C19.9628 13.4948 19.9484 14.5469 19.6748 15.6188C19.3607 16.8499 18.7421 17.8489 17.8358 18.5877C16.8968 19.3534 15.7179 19.7997 14.4264 19.8783C13.0774 19.9604 11.6916 20.0004 10.1968 20.0004ZM9.99771 18.4376C11.5399 18.4412 12.9559 18.4023 14.3315 18.3187C15.3081 18.2593 16.1548 17.9424 16.8484 17.3768C17.4896 16.8539 17.9312 16.1324 18.1609 15.2325C18.3885 14.3403 18.4016 13.3823 18.4143 12.456C18.4242 11.7307 18.4346 10.8716 18.4367 10.0004C18.4346 9.12894 18.4242 8.27002 18.4143 7.54477C18.4016 6.61841 18.3885 5.66047 18.1609 4.76813C17.9312 3.86817 17.4896 3.14673 16.8484 2.62381C16.1548 2.05832 15.3081 1.7414 14.3315 1.68204C12.9559 1.59827 11.5399 1.55967 10.0014 1.56302C8.45947 1.55936 7.0433 1.59827 5.66772 1.68204C4.69116 1.7414 3.84445 2.05832 3.15079 2.62381C2.50961 3.14673 2.06802 3.86817 1.83838 4.76813C1.61072 5.66047 1.5976 6.61826 1.58493 7.54477C1.57501 8.27063 1.56464 9.13016 1.5625 10.0022C1.56464 10.8704 1.57501 11.7301 1.58493 12.456C1.5976 13.3823 1.61072 14.3403 1.83838 15.2325C2.06802 16.1324 2.50961 16.8539 3.15079 17.3768C3.84445 17.9423 4.69116 18.2592 5.66772 18.3185C7.0433 18.4023 8.45978 18.4414 9.99771 18.4376ZM9.96048 14.8832C7.26822 14.8832 5.07767 12.6928 5.07767 10.0004C5.07767 7.30796 7.26822 5.11756 9.96048 5.11756C12.6529 5.11756 14.8433 7.30796 14.8433 10.0004C14.8433 12.6928 12.6529 14.8832 9.96048 14.8832ZM9.96048 6.68006C8.12973 6.68006 6.64017 8.16962 6.64017 10.0004C6.64017 11.8311 8.12973 13.3207 9.96048 13.3207C11.7914 13.3207 13.2808 11.8311 13.2808 10.0004C13.2808 8.16962 11.7914 6.68006 9.96048 6.68006ZM15.3902 3.55506C14.743 3.55506 14.2183 4.07966 14.2183 4.72693C14.2183 5.37421 14.743 5.89881 15.3902 5.89881C16.0374 5.89881 16.562 5.37421 16.562 4.72693C16.562 4.07966 16.0374 3.55506 15.3902 3.55506Z" fill="currentColor"/>
<defs>
<linearGradient id="dpaint0_linear_331_1982" x1="19.9992" y1="9.81858" x2="7.72684e-08" y2="9.81858" gradientUnits="userSpaceOnUse">
<stop stop-color="#FD5913"/>
<stop offset="1" stop-color="#FD9F13"/>
</linearGradient>
</defs>
</symbol><symbol viewBox="0 0 40 40" fill="none" id="location" xmlns="http://www.w3.org/2000/svg">
<path d="M20 0C12.9715 0 7.10938 5.66172 7.10938 12.8906C7.10938 15.6408 7.93578 18.0931 9.5218 20.3911L19.0135 35.202C19.474 35.922 20.527 35.9206 20.9865 35.202L30.5194 20.3407C32.0713 18.1469 32.8906 15.5709 32.8906 12.8906C32.8906 5.78273 27.1079 0 20 0ZM20 18.75C16.7693 18.75 14.1406 16.1213 14.1406 12.8906C14.1406 9.65992 16.7693 7.03125 20 7.03125C23.2307 7.03125 25.8594 9.65992 25.8594 12.8906C25.8594 16.1213 23.2307 18.75 20 18.75Z" fill="currentColor"/>
<path d="M29.1613 26.9293L23.2604 36.1548C21.733 38.5362 18.2585 38.5284 16.7384 36.1571L10.828 26.9317C5.62766 28.1341 2.42188 30.3366 2.42188 32.9687C2.42188 37.5361 11.4788 40 20 40C28.5212 40 37.5781 37.5361 37.5781 32.9687C37.5781 30.3348 34.3679 28.131 29.1613 26.9293Z" fill="currentColor"/>
</symbol><symbol viewBox="0 0 40 40" fill="none" id="tel" xmlns="http://www.w3.org/2000/svg">
<path d="M34.1395 5.85537C26.3279 -1.95393 13.6645 -1.95206 5.85524 5.85966C-1.95405 13.6714 -1.95218 26.3347 5.85954 34.144C13.6713 41.9533 26.3345 41.9514 34.1438 34.1397C37.8943 30.388 40.0007 25.3001 39.9995 19.9954C39.9984 14.6915 37.8905 9.60521 34.1395 5.85537ZM30.2888 27.8594C30.288 27.8603 30.2871 27.8612 30.2862 27.8621V27.8554L29.2728 28.8621C27.9623 30.1892 26.0536 30.7352 24.2395 30.3021C22.4117 29.8129 20.6742 29.0341 19.0928 27.9954C17.6236 27.0565 16.262 25.9588 15.0328 24.7221C13.9018 23.5993 12.8857 22.3665 11.9995 21.0421C11.0301 19.6169 10.2628 18.0644 9.71946 16.4287C9.09657 14.5072 9.61274 12.3986 11.0528 10.9821L12.2395 9.79544C12.5694 9.46404 13.1055 9.46287 13.4368 9.79279C13.4377 9.79365 13.4386 9.79451 13.4395 9.79544L17.1861 13.5421C17.5175 13.872 17.5187 14.4081 17.1888 14.7394C17.1879 14.7403 17.187 14.7411 17.1861 14.7421L14.9861 16.9421C14.3549 17.5665 14.2755 18.5586 14.7995 19.2754C15.5952 20.3675 16.4757 21.3951 17.4328 22.3488C18.4999 23.4205 19.66 24.3954 20.8995 25.2622C21.6156 25.7617 22.5866 25.6775 23.2061 25.0622L25.3327 22.9022C25.6627 22.5708 26.1988 22.5696 26.5301 22.8995C26.5309 22.9004 26.5318 22.9012 26.5327 22.9022L30.2861 26.6622C30.6176 26.992 30.6188 27.528 30.2888 27.8594Z" fill="currentColor"/>
</symbol></svg>