<svg width="70" height="96" viewBox="0 0 70 96" fill="none" xmlns="http://www.w3.org/2000/svg">
<circle cx="2.06897" cy="2.06897" r="2.06897" transform="matrix(-1 0 0 1 4.13794 91)" fill="white"/>
<circle cx="2.06897" cy="2.06897" r="2.06897" transform="matrix(-1 0 0 1 4.13794 78)" fill="white"/>
<circle cx="2.06897" cy="2.06897" r="2.06897" transform="matrix(-1 0 0 1 4.13794 65)" fill="white"/>
<circle cx="2.06897" cy="2.06897" r="2.06897" transform="matrix(-1 0 0 1 4.13794 52)" fill="white"/>
<circle cx="2.06897" cy="2.06897" r="2.06897" transform="matrix(-1 0 0 1 4.13794 39)" fill="white"/>
<circle cx="2.06897" cy="2.06897" r="2.06897" transform="matrix(-1 0 0 1 4.13794 26)" fill="white"/>
<circle cx="2.06897" cy="2.06897" r="2.06897" transform="matrix(-1 0 0 1 4.13794 13)" fill="white"/>
<circle cx="2.06897" cy="2.06897" r="2.06897" transform="matrix(-1 0 0 1 4.13794 0)" fill="white"/>
<circle cx="2.06897" cy="2.06897" r="2.06897" transform="matrix(-1 0 0 1 17.1379 91)" fill="white"/>
<circle cx="2.06897" cy="2.06897" r="2.06897" transform="matrix(-1 0 0 1 17.1379 78)" fill="white"/>
<circle cx="2.06897" cy="2.06897" r="2.06897" transform="matrix(-1 0 0 1 17.1379 65)" fill="white"/>
<circle cx="2.06897" cy="2.06897" r="2.06897" transform="matrix(-1 0 0 1 17.1379 52)" fill="white"/>
<circle cx="2.06897" cy="2.06897" r="2.06897" transform="matrix(-1 0 0 1 17.1379 39)" fill="white"/>
<circle cx="2.06897" cy="2.06897" r="2.06897" transform="matrix(-1 0 0 1 17.1379 26)" fill="white"/>
<circle cx="2.06897" cy="2.06897" r="2.06897" transform="matrix(-1 0 0 1 17.1379 13)" fill="white"/>
<circle cx="2.06897" cy="2.06897" r="2.06897" transform="matrix(-1 0 0 1 17.1379 0)" fill="white"/>
<circle cx="2.06897" cy="2.06897" r="2.06897" transform="matrix(-1 0 0 1 30.1379 91)" fill="white"/>
<circle cx="2.06897" cy="2.06897" r="2.06897" transform="matrix(-1 0 0 1 30.1379 78)" fill="white"/>
<circle cx="2.06897" cy="2.06897" r="2.06897" transform="matrix(-1 0 0 1 30.1379 65)" fill="white"/>
<circle cx="2.06897" cy="2.06897" r="2.06897" transform="matrix(-1 0 0 1 30.1379 52)" fill="white"/>
<circle cx="2.06897" cy="2.06897" r="2.06897" transform="matrix(-1 0 0 1 30.1379 39)" fill="white"/>
<circle cx="2.06897" cy="2.06897" r="2.06897" transform="matrix(-1 0 0 1 30.1379 26)" fill="white"/>
<circle cx="2.06897" cy="2.06897" r="2.06897" transform="matrix(-1 0 0 1 30.1379 13)" fill="white"/>
<circle cx="2.06897" cy="2.06897" r="2.06897" transform="matrix(-1 0 0 1 30.1379 0)" fill="white"/>
<circle cx="2.06897" cy="2.06897" r="2.06897" transform="matrix(-1 0 0 1 43.1379 91)" fill="white"/>
<circle cx="2.06897" cy="2.06897" r="2.06897" transform="matrix(-1 0 0 1 43.1379 78)" fill="white"/>
<circle cx="2.06897" cy="2.06897" r="2.06897" transform="matrix(-1 0 0 1 43.1379 65)" fill="white"/>
<circle cx="2.06897" cy="2.06897" r="2.06897" transform="matrix(-1 0 0 1 43.1379 52)" fill="white"/>
<circle cx="2.06897" cy="2.06897" r="2.06897" transform="matrix(-1 0 0 1 43.1379 39)" fill="white"/>
<circle cx="2.06897" cy="2.06897" r="2.06897" transform="matrix(-1 0 0 1 43.1379 26)" fill="white"/>
<circle cx="2.06897" cy="2.06897" r="2.06897" transform="matrix(-1 0 0 1 43.1379 13)" fill="white"/>
<circle cx="2.06897" cy="2.06897" r="2.06897" transform="matrix(-1 0 0 1 43.1379 0)" fill="white"/>
<circle cx="2.06897" cy="2.06897" r="2.06897" transform="matrix(-1 0 0 1 56.1379 91)" fill="white"/>
<circle cx="2.06897" cy="2.06897" r="2.06897" transform="matrix(-1 0 0 1 56.1379 78)" fill="white"/>
<circle cx="2.06897" cy="2.06897" r="2.06897" transform="matrix(-1 0 0 1 56.1379 65)" fill="white"/>
<circle cx="2.06897" cy="2.06897" r="2.06897" transform="matrix(-1 0 0 1 56.1379 52)" fill="white"/>
<circle cx="2.06897" cy="2.06897" r="2.06897" transform="matrix(-1 0 0 1 56.1379 39)" fill="white"/>
<circle cx="2.06897" cy="2.06897" r="2.06897" transform="matrix(-1 0 0 1 56.1379 26)" fill="white"/>
<circle cx="2.06897" cy="2.06897" r="2.06897" transform="matrix(-1 0 0 1 56.1379 13)" fill="white"/>
<circle cx="2.06897" cy="2.06897" r="2.06897" transform="matrix(-1 0 0 1 56.1379 0)" fill="white"/>
<circle cx="2.06897" cy="2.06897" r="2.06897" transform="matrix(-1 0 0 1 69.1379 91)" fill="white"/>
<circle cx="2.06897" cy="2.06897" r="2.06897" transform="matrix(-1 0 0 1 69.1379 78)" fill="white"/>
<circle cx="2.06897" cy="2.06897" r="2.06897" transform="matrix(-1 0 0 1 69.1379 65)" fill="white"/>
<circle cx="2.06897" cy="2.06897" r="2.06897" transform="matrix(-1 0 0 1 69.1379 52)" fill="white"/>
<circle cx="2.06897" cy="2.06897" r="2.06897" transform="matrix(-1 0 0 1 69.1379 39)" fill="white"/>
<circle cx="2.06897" cy="2.06897" r="2.06897" transform="matrix(-1 0 0 1 69.1379 26)" fill="white"/>
<circle cx="2.06897" cy="2.06897" r="2.06897" transform="matrix(-1 0 0 1 69.1379 13)" fill="white"/>
<circle cx="2.06897" cy="2.06897" r="2.06897" transform="matrix(-1 0 0 1 69.1379 0)" fill="white"/>
</svg>
