<svg width="98" height="52" viewBox="0 0 98 52" fill="none" xmlns="http://www.w3.org/2000/svg">
<path d="M13.4185 21.1393H82.7573V37.9452H14.8629L13.4185 21.1393Z" fill="white"/>
<path d="M23.8844 51.7088C17.1901 51.7088 11.8191 49.4721 8.35225 45.241C8.26685 45.1364 8.18358 45.0313 8.10144 44.9256C8.09378 44.9161 8.08612 44.9067 8.07846 44.8971L4.33292 40.1356C4.27572 40.0687 4.21868 40.0019 4.16278 39.9336C3.95092 39.6749 3.74493 39.4065 3.54871 39.1344C3.54513 39.1294 3.54138 39.1242 3.53779 39.1192C0.60564 35.039 -0.561061 29.4081 0.252647 23.2635C1.0908 16.9348 3.7169 11.4709 7.84688 7.46293C12.3057 3.13573 18.2512 0.848389 25.04 0.848389C31.735 0.848389 37.106 3.08523 40.5725 7.31679C40.6946 7.46552 40.8137 7.61806 40.9311 7.77232L41.6639 8.705L42.3905 3.21943C42.5034 2.36561 43.1918 1.73074 44.0042 1.73074H57.6532C58.1353 1.73074 58.5928 1.9573 58.9024 2.34936L62.3906 6.76735L65.2499 2.4635C65.5552 2.00399 66.0521 1.73074 66.5819 1.73074H92.1488C92.631 1.73074 93.0884 1.95747 93.3981 2.3497L97.5869 7.6568C97.9032 8.0575 98.0316 8.58861 97.9366 9.10156L93.3637 33.739C93.2131 34.5497 92.5433 35.1341 91.7646 35.1341H91.4209L92.189 36.1071C93.5268 37.749 94.0547 39.9682 93.7159 42.526C93.0553 47.5018 89.3726 50.8444 84.5517 50.8444C83.5834 50.8444 82.6637 50.7014 81.8207 50.4262C81.5317 50.6816 81.1639 50.8269 80.7774 50.8269H65.7662C65.284 50.8269 64.8265 50.6002 64.5169 50.208L60.3269 44.8998C60.2327 44.7805 60.154 44.648 60.0931 44.5062L59.0711 42.1248L58.1153 49.3384C58.0023 50.1922 57.3138 50.8269 56.5015 50.8269H42.8528C42.3706 50.8269 41.913 50.6002 41.6035 50.208L38.9855 46.8909C34.8248 50.0488 29.6402 51.7088 23.8844 51.7088ZM10.5496 42.6409C10.5636 42.6576 10.5773 42.6746 10.5908 42.692C10.6637 42.7866 10.7375 42.8804 10.8129 42.9727C13.6411 46.4247 18.1616 48.2499 23.8843 48.2499C29.479 48.2499 34.4255 46.4957 38.1888 43.1775C38.8788 42.5686 39.9032 42.6668 40.4796 43.3973L43.6134 47.3679H55.0847L56.6221 35.7657C56.723 35.0044 57.2853 34.4051 58.0023 34.295C58.7202 34.1836 59.419 34.5902 59.719 35.2898L62.9677 42.8586L66.5269 47.3679H78.3615C78.3522 46.8084 78.5999 46.2605 79.0549 45.9217C79.705 45.4377 80.5895 45.5214 81.1484 46.1199C81.9108 46.9361 83.1196 47.3854 84.5519 47.3854C87.7763 47.3854 90.0512 45.3386 90.4886 42.0439C90.6312 40.968 90.6132 39.4554 89.7182 38.3628C89.7119 38.3548 89.7055 38.3469 89.6991 38.3387L86.6808 34.515C86.2743 33.9999 86.1855 33.2817 86.4533 32.673C86.7212 32.0642 87.297 31.6751 87.9301 31.6751H90.4249L94.5882 9.24389L91.388 5.1896H67.4269L62.8733 12.0433C62.4398 12.696 61.6408 12.9485 60.9415 12.6547C60.2419 12.3608 59.8227 11.5966 59.9275 10.8059L60.1284 9.28834L56.8923 5.18977H45.4207L44.3797 13.049C44.29 13.7264 43.8326 14.284 43.2126 14.4716C42.5932 14.6591 41.927 14.4413 41.5143 13.9159L38.4187 9.97665C38.4129 9.96921 38.4072 9.96178 38.4014 9.95434C38.3073 9.83017 38.2116 9.70721 38.1128 9.58701C35.2835 6.13283 30.7629 4.30759 25.0397 4.30759C19.0788 4.30759 13.894 6.28138 10.0463 10.0157C6.48201 13.4748 4.21135 18.2224 3.47994 23.7453C2.78927 28.962 3.72749 33.6727 6.12184 37.0117C6.12461 37.0154 6.12722 37.0192 6.12983 37.0228C6.2871 37.2418 6.45251 37.4574 6.62184 37.6639C6.66176 37.7127 6.70414 37.7618 6.74634 37.8113L6.79344 37.8664C6.80795 37.8835 6.82229 37.9007 6.83614 37.9185L10.5496 42.6409ZM74.6855 37.1951C74.0602 37.1951 73.4849 36.8135 73.2136 36.2065L70.2665 29.6107C70.0064 29.0291 70.0725 28.3423 70.4379 27.8283L76.3428 19.5208C76.7797 18.9059 77.5476 18.6717 78.2257 18.9468C78.9037 19.2218 79.3287 19.9395 79.2679 20.7072L78.7274 27.5321L80.1856 29.3796C80.5231 29.8073 80.6455 30.3815 80.5145 30.9217C80.3831 31.462 80.0145 31.902 79.5241 32.1031C77.9132 32.7639 76.7507 34.1302 76.251 35.9495C76.0617 36.6389 75.4906 37.1326 74.8159 37.1897C74.7722 37.1932 74.7289 37.1951 74.6855 37.1951ZM73.6342 29.0752L74.7678 31.6121C75.2431 30.993 75.7923 30.4465 76.4083 29.9808L75.7977 29.207C75.5217 28.8575 75.387 28.4061 75.423 27.9516L75.5472 26.3837L73.6342 29.0752ZM21.2207 33.1466C20.6601 33.1466 20.1201 33.1019 19.6164 33.0135C18.8636 32.8815 18.2978 32.2131 18.2548 31.4046C18.2116 30.5945 18.2507 29.7227 18.3707 28.8134C19.1394 23.0127 22.7151 19.4098 27.703 19.4098C28.2642 19.4098 28.8045 19.4548 29.3084 19.5431C30.061 19.6754 30.6266 20.344 30.6695 21.1524C30.7125 21.9638 30.6731 22.8361 30.5528 23.7448C29.7847 29.5441 26.2089 33.1466 21.2207 33.1466ZM27.3702 22.8766C24.2167 23.0279 22.1212 25.3476 21.5983 29.294C21.5812 29.4241 21.5662 29.5527 21.5535 29.6797C24.7073 29.5283 26.8024 27.209 27.325 23.2631C27.3422 23.1331 27.3573 23.0039 27.3702 22.8766Z" fill="white"/>
<path d="M65.7659 48.9721L61.5759 43.6638L62.9612 42.5991L64.7131 43.6814L65.7659 48.9721Z" fill="#000F33"/>
<path d="M42.8523 48.972L38.6632 43.6637L44.0567 42.8167L43.2963 48.1246L42.8523 48.972Z" fill="#000F33"/>
<path d="M90.948 37.103C91.9747 38.3568 92.374 40.1052 92.1019 42.1598C91.551 46.3087 88.5882 48.9893 84.5515 48.9893C82.5404 48.9893 80.8439 48.2716 79.7765 46.9676C78.7481 45.712 78.3472 43.9671 78.6178 41.9246C79.167 37.7757 82.1297 35.0951 86.1665 35.0951C88.189 35.0951 89.8871 35.8076 90.948 37.103ZM90.5211 41.9246C90.7297 40.3474 90.4689 39.0987 89.7437 38.2132C88.9908 37.2949 87.7212 36.7882 86.1665 36.7882C83.6242 36.7882 80.7217 38.1994 80.1969 42.1598C79.99 43.7249 80.254 44.9701 80.9808 45.8573C81.7403 46.7843 83.0082 47.2962 84.5515 47.2962C87.0938 47.2962 89.9963 45.885 90.5211 41.9246Z" fill="#000F33"/>
<path d="M96.3375 8.64178L91.7646 33.2792H81.2367L83.1874 8.64178H96.3375ZM90.4527 31.5861L94.3981 10.3349H84.6558L82.9723 31.5861H90.4527Z" fill="#000F33"/>
<path d="M86.028 8.64178L71.7388 28.7446L80.7771 48.972H65.766L59.8485 35.185H58.328L56.5011 48.972H42.8524L48.1946 8.64178H61.8433L60.0311 22.3181H61.6852L70.7708 8.64178H86.028V8.64178ZM69.653 28.8069L82.7572 10.3712H71.6166L62.531 24.0475H58.1569L59.9675 10.3712H49.6108L44.7282 47.2426H55.0849L57.0821 32.1566L60.8981 33.4556L66.8139 47.2426H77.9146L69.653 28.8069Z" fill="#000F33"/>
<path d="M61.8433 8.64187L57.6532 3.33478L56.2795 9.03394L60.9514 9.4893L61.8433 8.64187Z" fill="#000F33"/>
<path d="M77.0471 27.9717L81.2367 33.2793L82.7573 27.5964L77.0471 27.9717Z" fill="#000F33"/>
<path d="M96.3375 8.64187L92.1485 3.33478L90.5907 9.37982L96.3375 8.64187Z" fill="#000F33"/>
<path d="M42.3014 14.7691C45.0687 18.1467 46.185 23.0894 45.4435 28.6858C43.879 40.4944 35.4176 48.1246 23.8842 48.1246C18.1607 48.1246 13.6399 46.2983 10.8108 42.8447C8.04355 39.4671 6.92883 34.5244 7.67034 28.928C9.23323 17.1194 17.6963 9.4892 29.2296 9.4892C34.9531 9.4892 39.4739 11.3155 42.3014 14.7691ZM34.7429 28.928C35.1487 25.86 34.6223 23.3333 33.2191 21.6211C31.9675 20.0923 30.0591 19.2847 27.7026 19.2847C22.7141 19.2847 19.1385 22.8871 18.3709 28.6858C17.9652 31.7538 18.4915 34.2805 19.8947 35.9927C21.1463 37.5215 23.0531 38.3291 25.4096 38.3291C30.3981 38.3291 33.9737 34.7267 34.7429 28.928Z" fill="#F50276"/>
<path d="M43.532 13.6329C46.6137 17.3944 47.8653 22.8265 47.057 28.9279C46.2731 34.853 43.8237 39.9582 39.9776 43.6921C35.8235 47.7233 30.2581 49.854 23.8843 49.854C17.6752 49.854 12.729 47.8219 9.58207 43.9809C6.50031 40.2194 5.2487 34.7872 6.0554 28.6858C6.84091 22.7608 9.28872 17.6555 13.1364 13.9217C17.2889 9.89042 22.8543 7.75977 29.2297 7.75977C35.4389 7.75977 40.385 9.79184 43.532 13.6329ZM45.4436 28.6858C46.1851 23.0894 45.0688 18.1467 42.3015 14.7691C39.474 11.3155 34.9532 9.48919 29.2297 9.48919C17.6963 9.48919 9.23331 17.1194 7.67043 28.9279C6.92892 34.5244 8.04363 39.4671 10.8109 42.8446C13.64 46.2983 18.1608 48.1246 23.8843 48.1246C35.4177 48.1246 43.8791 40.4943 45.4436 28.6858Z" fill="#000F33"/>
<path d="M33.2193 21.6211C34.6224 23.3333 35.1488 25.8599 34.743 28.9279C33.9738 34.7267 30.3983 38.3291 25.4098 38.3291C23.0532 38.3291 21.1465 37.5215 19.8949 35.9927C18.4917 34.2805 17.9653 31.7538 18.3711 28.6858C19.1387 22.8871 22.7142 19.2847 27.7027 19.2847C30.0593 19.2847 31.9677 20.0923 33.2193 21.6211ZM33.128 28.6858C33.467 26.1297 33.0726 24.0786 31.9889 22.7556C31.042 21.6004 29.6013 21.0141 27.7027 21.0141C23.5258 21.0141 20.6413 23.9714 19.9845 28.9279C19.6472 31.484 20.0399 33.5351 21.1237 34.8582C22.0705 36.0134 23.5128 36.5997 25.4098 36.5997C29.5867 36.5997 32.4729 33.6424 33.128 28.6858Z" fill="#000F33"/>
<path d="M82.7572 10.3713L69.653 28.807L77.9146 47.2427H66.8139L64.1836 43.6815L60.8981 33.4557H56.9102L55.085 47.2427H44.7282L42.2954 43.6815L56.9247 6.3573L59.9675 10.3713L58.1569 24.0476H62.531L71.6166 10.3713L79.3117 5.20447L82.7572 10.3713Z" fill="#F50276"/>
<path d="M89.7438 38.2133C90.469 39.0987 90.7297 40.3474 90.5211 41.9246C89.9964 45.885 87.0939 47.2962 84.5515 47.2962C83.0082 47.2962 81.7403 46.7843 80.9808 45.8573C80.254 44.9701 79.99 43.7249 80.197 42.1598C80.7217 38.1994 83.6242 36.7882 86.1666 36.7882C87.7213 36.7882 88.9908 37.2949 89.7438 38.2133Z" fill="#F50276"/>
<path d="M94.3981 10.3349L90.4526 31.5861H82.9723L80.1287 27.9716L90.5907 5.97845L94.3981 10.3349Z" fill="#F50276"/>
<path d="M25.0401 3.31696C38.1347 3.31696 43.5289 12.4153 42.061 23.499C40.5931 34.5827 32.789 43.6811 19.6944 43.6811C6.59975 43.6811 1.20545 34.5829 2.67332 23.4992C4.14119 12.4155 11.9455 3.31696 25.0401 3.31696ZM23.5137 14.8417C18.837 14.8417 15.6894 18.2054 14.9883 23.4992C14.2872 28.793 16.5438 32.1567 21.2206 32.1567C25.897 32.1567 29.0446 28.793 29.7457 23.4992C30.4468 18.2054 28.1902 14.8417 23.5137 14.8417Z" fill="url(#paint0_linear_124_2)"/>
<path d="M25.0401 3.31696C38.1347 3.31696 43.5289 12.4153 42.061 23.499C40.5931 34.5827 32.789 43.6811 19.6944 43.6811C6.59975 43.6811 1.20545 34.5829 2.67332 23.4992C4.14119 12.4155 11.9455 3.31696 25.0401 3.31696ZM23.5137 14.8417C18.837 14.8417 15.6894 18.2054 14.9883 23.4992C14.2872 28.793 16.5438 32.1567 21.2206 32.1567C25.897 32.1567 29.0446 28.793 29.7457 23.4992C30.4468 18.2054 28.1902 14.8417 23.5137 14.8417Z" fill="url(#paint1_linear_124_2)"/>
<path d="M39.6005 42.7989L44.7125 4.19934H56.7157L54.9046 17.8746H57.9184L67.0043 4.19934H80.2027L66.6005 23.3339L75.2985 42.7991H62.1001L56.1835 29.0135H53.4294L51.6037 42.7991L39.6005 42.7989Z" fill="url(#paint2_linear_124_2)"/>
<path d="M76.5869 43.6638H61.5761L55.6593 29.8782H54.1378L52.3123 43.6638H38.6632L44.0041 3.33478H57.6531L55.842 17.0101H57.4958L66.5817 3.33478H81.8381L67.5483 23.4366L76.5869 43.6638ZM62.6245 41.9344H74.0105L65.653 23.2313L78.5673 5.06421H67.4269L58.341 18.7395H53.9672L55.7783 5.06421H45.4208L40.538 41.9344H50.8956L52.7211 28.1488H56.7079L62.6245 41.9344Z" fill="#000F33"/>
<path d="M80.3615 42.8347C77.2075 42.8347 74.6668 40.8912 75.2173 36.7345C75.7679 32.5775 78.8234 30.6341 81.9772 30.6341C85.1822 30.6341 87.672 32.5777 87.1213 36.7345C86.571 40.8912 83.5665 42.8347 80.3615 42.8347ZM77.9145 27.125L79.7321 4.18134H91.1783L86.9188 27.125H77.9145Z" fill="url(#paint3_linear_124_2)"/>
<path d="M80.3615 42.8347C77.2075 42.8347 74.6668 40.8912 75.2173 36.7345C75.7679 32.5775 78.8234 30.6341 81.9772 30.6341C85.1822 30.6341 87.672 32.5777 87.1213 36.7345C86.571 40.8912 83.5665 42.8347 80.3615 42.8347ZM77.9145 27.125L79.7321 4.18134H91.1783L86.9188 27.125H77.9145Z" fill="url(#paint4_linear_124_2)"/>
<path d="M80.3615 43.6815C78.3503 43.6815 76.6549 42.9639 75.5875 41.6608C74.558 40.404 74.1569 38.6599 74.4276 36.6167C74.977 32.4682 77.9405 29.7876 81.9774 29.7876C84 29.7876 85.698 30.5008 86.7586 31.7954C87.7851 33.0486 88.1838 34.7972 87.9116 36.8523C87.3621 41.0008 84.3985 43.6815 80.3615 43.6815ZM81.9774 31.4807C79.4352 31.4807 76.5319 32.8917 76.0075 36.8523C75.8 38.4176 76.064 39.6617 76.7917 40.55C77.5514 41.4776 78.819 41.9883 80.3615 41.9883C82.9037 41.9883 85.8072 40.5773 86.3318 36.6167C86.5407 35.0392 86.2793 33.7909 85.5546 32.9064C84.8015 31.9871 83.5311 31.4807 81.9774 31.4807ZM87.5749 27.9717H77.0471L78.9986 3.33478H92.1487L87.5749 27.9717ZM78.7822 26.2784H86.263L90.2082 5.02789H80.4658L78.7822 26.2784Z" fill="#000F33"/>
<path d="M77.4114 42.8348L78.7823 45.7553L79.6387 42.8348H77.4114Z" fill="#000F33"/>
<path d="M39.3425 8.32596L43.2963 13.3574L40.9603 12.6656L39.3425 8.32596Z" fill="#000F33"/>
<path d="M4.83362 37.9453L9.32996 43.6638L8.85522 40.1058L4.83362 37.9453Z" fill="#000F33"/>
<path d="M86.7585 31.7953L90.948 37.103L88.8534 36.7882L87.1981 36.0705L86.7585 31.7953Z" fill="#000F33"/>
<path d="M56.9103 33.4556L57.1759 31.0552L58.3167 34.4492L57.1352 34.8167L56.9103 33.4556Z" fill="#000F33"/>
<path d="M55.5999 6.412L46.5013 6.35718L41.6018 41.9343H40.5381L45.4208 5.06409H55.7784L55.5999 6.412Z" fill="#FCFB4F"/>
<path d="M21.8411 4.38565C21.8411 4.38565 7.18575 10.6204 5.32431 23.9647C3.71563 35.4963 8.60489 38.3264 10.6412 40.8046L6.19603 38.3293L2.97607 31.7955V21.6796L5.35853 14.8419L8.45854 10.3351L12.4086 6.90508L17.0581 4.71026L21.8411 4.38565Z" fill="#FCFB4F"/>
<path d="M17.926 32.3725C17.926 32.3725 25.7227 35.7679 29.4302 30.6661C33.1378 25.5643 32.2235 18.5196 28.2782 15.5483C26.1611 13.9537 29.0567 18.7763 29.0567 18.7763L29.8712 22.8836L29.0567 25.3913L27.8077 28.8069L24.7512 30.4423L24.1337 31.4876L20.5484 32.1361L17.926 32.3725Z" fill="#FCFB4F"/>
<path d="M19.6941 44.5461C13.4849 44.5461 8.53929 42.5151 5.39153 38.6725C2.31026 34.911 1.05816 29.4797 1.86616 23.3788C2.65086 17.4531 5.09932 12.3473 8.94639 8.61365C13.0997 4.58287 18.6648 2.45239 25.0397 2.45239C31.2488 2.45239 36.1945 4.48343 39.3422 8.32605C42.4235 12.0875 43.6756 17.5188 42.8676 23.6197C42.0829 29.5454 39.6344 34.6512 35.7874 38.3849C31.6341 42.4156 26.0691 44.5461 19.6941 44.5461ZM25.0398 4.18182C13.5064 4.18182 5.04391 11.8115 3.48005 23.6197C2.73887 29.217 3.85456 34.1599 6.62146 37.538C9.45029 40.9915 13.9709 42.8167 19.6941 42.8167C31.2275 42.8167 39.69 35.187 41.2539 23.3788C41.9952 17.7815 40.8794 12.8386 38.1125 9.46055C35.2836 6.00723 30.763 4.18182 25.0398 4.18182ZM21.2206 33.0214C18.8641 33.0214 16.9567 32.2136 15.7046 30.6851C14.3019 28.9728 13.775 26.4461 14.1813 23.3788C14.9494 17.5797 18.5251 13.9771 23.5136 13.9771C25.87 13.9771 27.7772 14.7849 29.0293 16.3134C30.432 18.0257 30.9589 20.5522 30.5526 23.6197C29.7844 29.4188 26.2086 33.0214 21.2206 33.0214ZM23.5136 15.7065C19.3367 15.7065 16.4513 18.6646 15.7952 23.6197C15.4567 26.1763 15.8506 28.2274 16.9345 29.5506C17.8812 30.7062 19.3232 31.292 21.2206 31.292C25.3972 31.292 28.2826 28.334 28.9387 23.3788C29.2772 20.8222 28.8833 18.7711 27.7994 17.4479C26.8527 16.2925 25.4107 15.7065 23.5136 15.7065Z" fill="#000F33"/>
<path d="M58.3411 18.7394L68.5837 6.412L77.6483 6.35718L78.5674 5.06409H67.427L58.3411 18.7394Z" fill="#FCFB4F"/>
<path d="M53.9672 18.7394L53.7806 20.0444H58.9142L68.5837 6.41202L66.1368 7.0059L58.341 18.7394H53.9672Z" fill="#FCFB4F"/>
<path d="M79.9022 26.2782L81.8382 6.35712H89.9613L90.208 5.02771H80.4657L78.7822 26.2782H79.9022Z" fill="#FCFB4F"/>
<defs>
<linearGradient id="paint0_linear_124_2" x1="22.3671" y1="3.31702" x2="22.3671" y2="43.6812" gradientUnits="userSpaceOnUse">
<stop stop-color="#14FB8B"/>
<stop offset="1" stop-color="#1390FD"/>
</linearGradient>
<linearGradient id="paint1_linear_124_2" x1="22.3672" y1="3.31696" x2="22.3672" y2="43.681" gradientUnits="userSpaceOnUse">
<stop stop-color="#FCFB4F"/>
<stop offset="1" stop-color="#FDBB13"/>
</linearGradient>
<linearGradient id="paint2_linear_124_2" x1="59.9017" y1="4.19934" x2="59.9017" y2="42.799" gradientUnits="userSpaceOnUse">
<stop stop-color="#FCFB4F"/>
<stop offset="1" stop-color="#FDBB13"/>
</linearGradient>
<linearGradient id="paint3_linear_124_2" x1="83.1602" y1="4.18118" x2="83.1602" y2="42.8347" gradientUnits="userSpaceOnUse">
<stop stop-color="#14FB8B"/>
<stop offset="1" stop-color="#1390FD"/>
</linearGradient>
<linearGradient id="paint4_linear_124_2" x1="83.1602" y1="4.18134" x2="83.1602" y2="42.8346" gradientUnits="userSpaceOnUse">
<stop stop-color="#FCFB4F"/>
<stop offset="1" stop-color="#FDBB13"/>
</linearGradient>
</defs>
</svg>
